<svg id="visual" viewBox="0 0 900 600" width="900" height="600" xmlns="http://www.w3.org/2000/svg" xmlns:xlink="http://www.w3.org/1999/xlink" version="1.1"><path d="M0 97L30 99C60 101 120 105 180 103C240 101 300 93 360 102C420 111 480 137 540 157C600 177 660 191 720 189C780 187 840 169 870 160L900 151L900 0L870 0C840 0 780 0 720 0C660 0 600 0 540 0C480 0 420 0 360 0C300 0 240 0 180 0C120 0 60 0 30 0L0 0Z" fill="#03314b"></path><path d="M0 121L30 123C60 125 120 129 180 128C240 127 300 121 360 129C420 137 480 159 540 179C600 199 660 217 720 216C780 215 840 195 870 185L900 175L900 149L870 158C840 167 780 185 720 187C660 189 600 175 540 155C480 135 420 109 360 100C300 91 240 99 180 101C120 103 60 99 30 97L0 95Z" fill="#003f5a"></path><path d="M0 151L30 151C60 151 120 151 180 148C240 145 300 139 360 149C420 159 480 185 540 207C600 229 660 247 720 246C780 245 840 225 870 215L900 205L900 173L870 183C840 193 780 213 720 214C660 215 600 197 540 177C480 157 420 135 360 127C300 119 240 125 180 126C120 127 60 123 30 121L0 119Z" fill="#004e68"></path><path d="M0 187L30 187C60 187 120 187 180 194C240 201 300 215 360 228C420 241 480 253 540 268C600 283 660 301 720 298C780 295 840 271 870 259L900 247L900 203L870 213C840 223 780 243 720 244C660 245 600 227 540 205C480 183 420 157 360 147C300 137 240 143 180 146C120 149 60 149 30 149L0 149Z" fill="#005d76"></path><path d="M0 253L30 249C60 245 120 237 180 236C240 235 300 241 360 254C420 267 480 287 540 304C600 321 660 335 720 336C780 337 840 325 870 319L900 313L900 245L870 257C840 269 780 293 720 296C660 299 600 281 540 266C480 251 420 239 360 226C300 213 240 199 180 192C120 185 60 185 30 185L0 185Z" fill="#006d82"></path><path d="M0 295L30 289C60 283 120 271 180 268C240 265 300 271 360 287C420 303 480 329 540 350C600 371 660 387 720 383C780 379 840 355 870 343L900 331L900 311L870 317C840 323 780 335 720 334C660 333 600 319 540 302C480 285 420 265 360 252C300 239 240 233 180 234C120 235 60 243 30 247L0 251Z" fill="#007d8e"></path><path d="M0 307L30 301C60 295 120 283 180 283C240 283 300 295 360 314C420 333 480 359 540 379C600 399 660 413 720 410C780 407 840 387 870 377L900 367L900 329L870 341C840 353 780 377 720 381C660 385 600 369 540 348C480 327 420 301 360 285C300 269 240 263 180 266C120 269 60 281 30 287L0 293Z" fill="#008d98"></path><path d="M0 343L30 335C60 327 120 311 180 311C240 311 300 327 360 349C420 371 480 399 540 417C600 435 660 443 720 438C780 433 840 415 870 406L900 397L900 365L870 375C840 385 780 405 720 408C660 411 600 397 540 377C480 357 420 331 360 312C300 293 240 281 180 281C120 281 60 293 30 299L0 305Z" fill="#009d9e"></path><path d="M0 355L30 351C60 347 120 339 180 344C240 349 300 367 360 389C420 411 480 437 540 454C600 471 660 479 720 473C780 467 840 447 870 437L900 427L900 395L870 404C840 413 780 431 720 436C660 441 600 433 540 415C480 397 420 369 360 347C300 325 240 309 180 309C120 309 60 325 30 333L0 341Z" fill="#00ad9f"></path><path d="M0 409L30 402C60 395 120 381 180 383C240 385 300 403 360 425C420 447 480 473 540 495C600 517 660 535 720 538C780 541 840 529 870 523L900 517L900 425L870 435C840 445 780 465 720 471C660 477 600 469 540 452C480 435 420 409 360 387C300 365 240 347 180 342C120 337 60 345 30 349L0 353Z" fill="#00bd9d"></path><path d="M0 601L30 601C60 601 120 601 180 601C240 601 300 601 360 601C420 601 480 601 540 601C600 601 660 601 720 601C780 601 840 601 870 601L900 601L900 515L870 521C840 527 780 539 720 536C660 533 600 515 540 493C480 471 420 445 360 423C300 401 240 383 180 381C120 379 60 393 30 400L0 407Z" fill="#1ecc97"></path></svg>